<svg id="Layer_1" data-name="Layer 1" xmlns="http://www.w3.org/2000/svg" viewBox="0 0 105.81 77.09">
  <defs>
    <style>
      .cls-1 {
        fill: #dfdfdf;
      }
    </style>
  </defs>
  <g>
    <g>
      <path class="cls-1" d="M31.77,13.6A29.88,29.88,0,0,1,74,13.6a2.42,2.42,0,0,0,3.42-3.43,34.73,34.73,0,0,0-49.11,0,2.42,2.42,0,0,0,3.42,3.43Z"/>
      <path class="cls-1" d="M67.93,22.13A2.42,2.42,0,0,0,69.64,18a23.65,23.65,0,0,0-33.47,0,2.42,2.42,0,0,0,3.42,3.42,18.84,18.84,0,0,1,26.63,0A2.42,2.42,0,0,0,67.93,22.13Z"/>
      <path class="cls-1" d="M43.91,25.73a2.42,2.42,0,0,0,3.42,3.43,7.88,7.88,0,0,1,11.15,0,2.43,2.43,0,0,0,3.43-3.43A12.75,12.75,0,0,0,43.91,25.73Z"/>
    </g>
    <path class="cls-1" d="M103.39,61.76H91.7C80,61.76,70.34,57.24,63,48.32a45.48,45.48,0,0,1-7.38-12.7,3.85,3.85,0,0,1-5.36,0A45.31,45.31,0,0,1,43,48.19,35.71,35.71,0,0,1,14.12,61.76H2.42a2.42,2.42,0,0,0,0,4.84h101a2.42,2.42,0,0,0,0-4.84Zm-52.9,0H34.08A42.36,42.36,0,0,0,46.7,51.26,52,52,0,0,0,50.49,46Zm4.84,0V46a50.35,50.35,0,0,0,3.78,5.3,42.49,42.49,0,0,0,12.62,10.5Z"/>
    <circle class="cls-1" cx="52.91" cy="32.86" r="2.81"/>
    <g>
      <path class="cls-1" d="M22.39,77.09A2.44,2.44,0,0,1,20,74.65V64.52a2.45,2.45,0,0,1,4.89,0V74.65A2.45,2.45,0,0,1,22.39,77.09Z"/>
      <path class="cls-1" d="M83.42,77.09A2.45,2.45,0,0,1,81,74.65V64.52a2.45,2.45,0,0,1,4.89,0V74.65A2.45,2.45,0,0,1,83.42,77.09Z"/>
    </g>
  </g>
</svg>
